<svg width="31" height="40" viewBox="0 0 31 40" fill="none" xmlns="http://www.w3.org/2000/svg">
<path d="M21.4013 24.1826C21.6256 23.5016 22.017 22.8677 22.5274 22.3538L30.462 14.4513V9.375H22.2276C21.5798 9.375 21.0938 8.85086 21.0938 8.20312V0H3.51562C1.57703 0 0 1.57703 0 3.51562V36.4844C0 38.423 1.57703 40 3.51562 40H26.9151C28.8537 40 30.462 38.423 30.462 36.4844V27.7382L29.1741 28.9948C28.6523 29.512 28.0413 29.8885 27.3523 30.1186L23.6261 31.3626L23.0584 31.3935C22.12 31.3935 21.232 30.9369 20.6804 30.1724C20.1334 29.4114 19.9846 28.4249 20.2821 27.5334L21.4013 24.1826ZM5.85938 21.0938H17.5401C18.1878 21.0938 18.712 21.6179 18.712 22.2656C18.712 22.9134 18.1878 23.4375 17.5401 23.4375H5.85938C5.21164 23.4375 4.6875 22.9134 4.6875 22.2656C4.6875 21.6179 5.21164 21.0938 5.85938 21.0938ZM4.6875 17.5781C4.6875 16.9304 5.21164 16.4062 5.85938 16.4062H17.5401C18.1878 16.4062 18.712 16.9304 18.712 17.5781C18.712 18.2259 18.1878 18.75 17.5401 18.75H5.85938C5.21164 18.75 4.6875 18.2259 4.6875 17.5781ZM4.6875 26.9531C4.6875 26.3054 5.21164 25.7812 5.85938 25.7812H17.5401C18.1878 25.7812 18.712 26.3054 18.712 26.9531C18.712 27.6009 18.1878 28.125 17.5401 28.125H5.85938C5.21164 28.125 4.6875 27.6009 4.6875 26.9531ZM22.2276 32.8125C22.8753 32.8125 23.3995 33.3366 23.3995 33.9844C23.3995 34.6321 22.8754 35.1562 22.2276 35.1562H15.1963C14.5486 35.1562 14.0245 34.6321 14.0245 33.9844C14.0245 33.3366 14.5486 32.8125 15.1963 32.8125H22.2276ZM5.85938 14.0625C5.21164 14.0625 4.6875 13.5384 4.6875 12.8906C4.6875 12.2429 5.21164 11.7188 5.85938 11.7188H22.2276C22.8753 11.7188 23.3995 12.2429 23.3995 12.8906C23.3995 13.5384 22.8753 14.0625 22.2276 14.0625H5.85938Z" fill="#5477BB"/>
</svg>
